<svg width="31" height="20" viewBox="0 0 31 20" fill="none" xmlns="http://www.w3.org/2000/svg">
<path fill-rule="evenodd" clip-rule="evenodd" d="M3 3L15.3148 17.3732L15.3169 17.3714L16.2158 17.8086L27.6722 3.43724L26.7729 2.99989L15.9496 16.5771L3.75939 2.34937L3 3Z" fill="black"/>
<path d="M15.3148 17.3732L14.1757 18.3492L15.1516 19.4882L16.2907 18.5123L15.3148 17.3732ZM3 3L2.02405 1.86092L0.884961 2.83687L1.86092 3.97596L3 3ZM15.3169 17.3714L15.9729 16.0224L15.0881 15.5922L14.341 16.2323L15.3169 17.3714ZM16.2158 17.8086L15.5598 19.1575L16.64 19.6828L17.3888 18.7436L16.2158 17.8086ZM27.6722 3.43724L28.8451 4.37226L30.0128 2.90753L28.3282 2.0883L27.6722 3.43724ZM26.7729 2.99989L27.429 1.65096L26.3488 1.12563L25.6 2.06488L26.7729 2.99989ZM15.9496 16.5771L14.8105 17.5531L15.9913 18.9312L17.1225 17.5121L15.9496 16.5771ZM3.75939 2.34937L4.89847 1.37341L3.92252 0.234327L2.78344 1.21028L3.75939 2.34937ZM16.4539 16.3972L4.13908 2.02405L1.86092 3.97596L14.1757 18.3492L16.4539 16.3972ZM14.341 16.2323L14.3389 16.2341L16.2907 18.5123L16.2928 18.5105L14.341 16.2323ZM16.8719 16.4596L15.9729 16.0224L14.6609 18.7203L15.5598 19.1575L16.8719 16.4596ZM26.4993 2.50222L15.0429 16.8735L17.3888 18.7436L28.8451 4.37226L26.4993 2.50222ZM26.1169 4.34883L27.0162 4.78618L28.3282 2.0883L27.429 1.65096L26.1169 4.34883ZM17.1225 17.5121L27.9459 3.93491L25.6 2.06488L14.7766 15.6421L17.1225 17.5121ZM2.62031 3.32532L14.8105 17.5531L17.0887 15.6012L4.89847 1.37341L2.62031 3.32532ZM3.97595 4.13909L4.73534 3.48845L2.78344 1.21028L2.02405 1.86092L3.97595 4.13909Z" fill="black"/>
</svg>
