<svg width="14" height="14" viewBox="0 0 14 14" fill="none" xmlns="http://www.w3.org/2000/svg">
                            <path fill-rule="evenodd" clip-rule="evenodd" d="M7 1.16667C3.77834 1.16667 1.16667 3.77834 1.16667 7C1.16667 10.2217 3.77834 12.8333 7 12.8333C10.2217 12.8333 12.8333 10.2217 12.8333 7C12.8333 3.77834 10.2217 1.16667 7 1.16667ZM0 7C0 3.13401 3.13401 0 7 0C10.866 0 14 3.13401 14 7C14 10.866 10.866 14 7 14C3.13401 14 0 10.866 0 7Z" fill="#DFDFDF"></path>
                            <path fill-rule="evenodd" clip-rule="evenodd" d="M10.3292 3.67087C10.4854 3.82711 10.54 4.0582 10.4701 4.26782L9.01175 8.64282C8.95369 8.817 8.817 8.95369 8.64282 9.01175L4.26782 10.4701C4.0582 10.54 3.82711 10.4854 3.67087 10.3292C3.51463 10.1729 3.46008 9.94183 3.52995 9.73222L4.98828 5.35722C5.04635 5.18303 5.18303 5.04635 5.35722 4.98828L9.73222 3.52995C9.94183 3.46008 10.1729 3.51463 10.3292 3.67087ZM6.00285 6.00285L5.00568 8.99435L7.99718 7.99718L8.99435 5.00568L6.00285 6.00285Z" fill="#DFDFDF"></path>
                        <svg width="14" height="14" viewBox="0 0 14 14" fill="none" xmlns="http://www.w3.org/2000/svg">
                            <path fill-rule="evenodd" clip-rule="evenodd" d="M7 1.16667C3.77834 1.16667 1.16667 3.77834 1.16667 7C1.16667 10.2217 3.77834 12.8333 7 12.8333C10.2217 12.8333 12.8333 10.2217 12.8333 7C12.8333 3.77834 10.2217 1.16667 7 1.16667ZM0 7C0 3.13401 3.13401 0 7 0C10.866 0 14 3.13401 14 7C14 10.866 10.866 14 7 14C3.13401 14 0 10.866 0 7Z" fill="#DFDFDF"></path>
                            <path fill-rule="evenodd" clip-rule="evenodd" d="M10.3292 3.67087C10.4854 3.82711 10.54 4.0582 10.4701 4.26782L9.01175 8.64282C8.95369 8.817 8.817 8.95369 8.64282 9.01175L4.26782 10.4701C4.0582 10.54 3.82711 10.4854 3.67087 10.3292C3.51463 10.1729 3.46008 9.94183 3.52995 9.73222L4.98828 5.35722C5.04635 5.18303 5.18303 5.04635 5.35722 4.98828L9.73222 3.52995C9.94183 3.46008 10.1729 3.51463 10.3292 3.67087ZM6.00285 6.00285L5.00568 8.99435L7.99718 7.99718L8.99435 5.00568L6.00285 6.00285Z" fill="#DFDFDF"></path>
                        </svg></svg>